<svg width="60" height="60" viewBox="0 0 60 60" fill="none" xmlns="http://www.w3.org/2000/svg">
<rect y="9" width="60" height="42" fill="#128807"/>
<path d="M60 40.3125C60 46.0078 56.8378 50.625 50.625 50.625H9.375C3.16219 50.625 0 46.0078 0 40.3125V19.6875C0 13.9922 3.16219 9.375 9.375 9.375H50.625C56.8378 9.375 60 13.9922 60 19.6875V40.3125Z" fill="#128807"/>
<path d="M53.5689 30.7406L30.1407 47.2031L6.71167 30.7406L30.1407 14.2781L53.5689 30.7406Z" fill="#F9CB38"/>
<path fill-rule="evenodd" clip-rule="evenodd" d="M39.3844 33.6075C38.3175 37.2329 34.9791 39.9929 31.1991 40.3679C26.1488 40.8732 21.7303 37.6632 20.6559 32.701C20.3379 31.2428 20.3785 29.7292 20.7741 28.29C20.9213 28.1307 21.1247 28.0922 21.3272 28.0641C22.8042 27.8577 24.2975 27.7927 25.7869 27.87C27.3759 27.96 28.9519 28.1804 30.4838 28.6135C32.0559 29.0588 33.5784 29.64 35.0156 30.4125C36.0974 30.9867 37.1306 31.6483 38.1047 32.3907C38.4347 32.6466 38.7713 32.8979 39.0881 33.1707C39.2297 33.2925 39.3413 33.4238 39.3844 33.6075Z" fill="#002776"/>
<path fill-rule="evenodd" clip-rule="evenodd" d="M21.3037 26.8228C22.514 24.1181 24.555 22.3172 27.3759 21.4716C33.0571 19.7681 38.8856 23.5228 39.7303 29.3785C39.8615 30.2831 39.8671 31.1906 39.7284 32.0972C39.585 32.1506 39.4781 32.0747 39.3796 31.9931C38.35 31.1518 37.2515 30.3985 36.0956 29.7413C35.2056 29.2362 34.2807 28.795 33.3281 28.4213C33.1593 28.3547 32.9475 28.32 32.8893 28.0941C32.9503 27.9853 33.0271 27.8906 33.119 27.8025C33.1518 27.7688 33.1996 27.736 33.1556 27.6797C33.1406 27.6619 33.1096 27.6619 33.0834 27.6647C33.0131 27.6722 33.0225 27.721 33.0253 27.7725C33.0309 27.9403 32.9334 28.0481 32.805 28.1344C32.5771 28.186 32.3587 28.1175 32.174 28.0191C31.6453 27.7416 31.0603 27.6469 30.5006 27.4922C29.6278 27.255 28.7315 27.121 27.8371 26.9813C27.1233 26.8675 26.4048 26.7855 25.6837 26.7356C25.0275 26.6897 24.359 26.6963 23.6981 26.7413C22.9771 26.7919 22.2543 26.8425 21.5371 26.9288C21.4922 26.9357 21.4461 26.9294 21.4047 26.9105C21.3632 26.8917 21.3281 26.8612 21.3037 26.8228Z" fill="#002776"/>
<path fill-rule="evenodd" clip-rule="evenodd" d="M32.8969 28.036C32.8932 28.1503 32.9954 28.1353 33.0573 28.1597C35.4783 29.1014 37.7297 30.4313 39.7229 32.0972C39.6657 32.6116 39.5519 33.1181 39.3835 33.6075C38.2107 32.6344 37.0098 31.7072 35.6813 30.9497C31.4823 28.5582 26.986 27.6103 22.1794 28.1185C21.7107 28.1663 21.2419 28.23 20.7732 28.2872C20.8941 27.78 21.0479 27.2822 21.3001 26.821C24.8091 26.3475 28.2573 26.6166 31.6407 27.6638C32.0607 27.7941 32.461 28.0041 32.9091 28.0435L32.8969 28.0332" fill="#FEFEFE"/>
<path fill-rule="evenodd" clip-rule="evenodd" d="M37.2656 34.0781C36.9835 34.0481 37.29 34.3941 37.005 34.3866C36.7566 34.3828 36.7435 34.1841 36.6216 34.0734C36.7153 33.9759 36.8813 33.9563 36.9338 33.8044C36.9694 33.9647 37.1203 33.9984 37.2656 34.0781Z" fill="#D9DFEA"/>
<path fill-rule="evenodd" clip-rule="evenodd" d="M26.6193 35.8125C26.354 35.8435 26.5761 36.1322 26.354 36.1369C26.1299 36.1416 26.0146 35.9757 25.9696 35.8041C25.9536 35.7554 26.1693 35.6466 26.2752 35.566C26.2883 35.7357 26.4646 35.7282 26.6193 35.8125Z" fill="#E9ECF3"/>
<path fill-rule="evenodd" clip-rule="evenodd" d="M30.1313 35.2903C29.7629 35.5284 30.0601 34.9903 29.8435 35.0428C29.9138 34.9303 30.1126 34.9566 30.1257 34.7841C30.2194 34.8816 30.2991 34.9941 30.4482 35.0147C30.2354 34.9856 30.4669 35.4581 30.1313 35.2903Z" fill="#EDEFF5"/>
<path fill-rule="evenodd" clip-rule="evenodd" d="M22.5187 28.9735C22.4306 29.1413 22.364 29.3288 22.0968 29.2163C21.96 29.1591 22.1062 28.9716 21.9421 28.9538L22.2459 28.6866L22.3115 28.8169C22.3359 28.9285 22.5581 28.7803 22.5187 28.9735Z" fill="#F0F2F6"/>
<path fill-rule="evenodd" clip-rule="evenodd" d="M23.369 33.0469C23.2293 33.0909 23.3296 33.4584 23.0296 33.2981C22.9996 33.2831 22.8684 33.3553 22.8928 33.3131C22.9715 33.1594 22.7953 33.0844 22.8225 32.9616C22.9865 33.0328 22.9771 32.7328 23.145 32.8134C23.1571 32.8228 23.1571 32.8603 23.1656 32.8847C23.1834 33.0009 23.4103 32.8556 23.369 33.0469Z" fill="#ECEFF4"/>
<path fill-rule="evenodd" clip-rule="evenodd" d="M21.8944 34.1325C21.6066 34.2329 21.8212 33.885 21.6562 33.8879C21.7331 33.8232 21.8194 33.7022 21.8963 33.7069C21.9881 33.7116 22.0725 33.825 22.1569 33.8897C22.0313 33.9319 22.1634 34.2722 21.8944 34.1325Z" fill="#D9DFEA"/>
<path fill-rule="evenodd" clip-rule="evenodd" d="M33.0187 37.4504C32.714 37.5891 33.0103 37.1794 32.8069 37.2329C32.7862 37.0763 33.0403 37.171 33.0084 37.006L33.2831 37.2263C33.1715 37.2769 33.2831 37.5957 33.0187 37.4504Z" fill="#D8DEEA"/>
<path fill-rule="evenodd" clip-rule="evenodd" d="M34.9688 37.2244C34.7166 37.3294 34.8713 36.99 34.7354 36.9563C34.8272 36.8972 34.9238 36.8344 35.0138 36.7734C35.0213 36.9122 35.2116 36.8616 35.2322 36.9844C35.0907 36.9928 35.2379 37.2984 34.9688 37.2244ZM36.7219 35.9625C36.435 36.1078 36.6469 35.7263 36.4829 35.7422C36.5157 35.6203 36.7041 35.6663 36.7154 35.5256L36.9844 35.7272C36.8204 35.7225 37.0219 36.1247 36.7219 35.9625Z" fill="#DCE1EC"/>
<path fill-rule="evenodd" clip-rule="evenodd" d="M25.109 34.2122C24.809 34.3819 25.005 34.0022 24.8662 33.9947C24.8803 33.855 25.0921 33.915 25.1015 33.7669C25.1296 33.9038 25.3115 33.8644 25.3509 33.9872C25.1718 33.961 25.4268 34.3913 25.109 34.2122Z" fill="#D4DAE7"/>
<path fill-rule="evenodd" clip-rule="evenodd" d="M26.3251 31.3641C26.1554 31.3528 26.3729 31.0856 26.1648 31.1025C26.2004 30.9525 26.3607 30.9835 26.4489 30.9056C26.4939 31.0003 26.6214 31.0219 26.6279 31.1578C26.6429 31.4063 26.4226 31.2778 26.3251 31.3641Z" fill="#F2F4F7"/>
<path fill-rule="evenodd" clip-rule="evenodd" d="M31.2655 33.3441C31.0058 33.4931 31.1427 33.1603 31.0227 33.1238L31.2655 32.9185C31.2711 33.0572 31.5365 33.0263 31.4615 33.1331C31.4165 33.1969 31.5618 33.4885 31.2655 33.3441Z" fill="#E6E9F1"/>
<path fill-rule="evenodd" clip-rule="evenodd" d="M30.1032 32.5088C29.807 32.5388 30.1126 32.2697 29.9204 32.2763C29.9954 32.206 30.0676 32.086 30.152 32.0785C30.2251 32.071 30.3095 32.19 30.3892 32.2556C30.2851 32.356 30.301 32.6147 30.1032 32.5088Z" fill="#EAEDF3"/>
<path fill-rule="evenodd" clip-rule="evenodd" d="M37.2956 34.6969C37.3566 34.8581 37.4766 34.8797 37.5703 34.9369C37.4747 35.0447 37.4372 35.2097 37.2385 35.2097C37.035 35.2116 37.1728 35.0569 37.1269 34.9847C37.0135 34.8047 37.4325 34.9566 37.2956 34.6969Z" fill="#E4E8F0"/>
<path fill-rule="evenodd" clip-rule="evenodd" d="M35.1732 37.9631C35.1019 38.0691 35.1507 38.1703 34.9613 38.1741C34.7447 38.1778 34.8141 38.0194 34.8047 37.9706C34.7869 37.89 34.9107 37.8131 34.9819 37.8291C35.0438 37.8403 35.1638 37.875 35.1732 37.9631Z" fill="#CED5E4"/>
<path fill-rule="evenodd" clip-rule="evenodd" d="M25.0444 34.9594C24.8897 34.9772 25.0181 35.1797 24.8222 35.1731C24.6431 35.1675 24.6693 35.0466 24.6497 34.9734C24.6187 34.8712 24.7697 34.8741 24.8034 34.7972C24.8747 34.8469 24.9469 34.8966 25.0444 34.9594Z" fill="#DAE0EB"/>
<path fill-rule="evenodd" clip-rule="evenodd" d="M34.7532 36.03C34.8194 35.9813 34.8872 35.9338 34.9566 35.8875C34.9622 35.9916 35.1863 35.9316 35.1113 36.0647C35.0804 36.1181 35.1563 36.2644 34.9622 36.2513C34.7879 36.2391 34.8291 36.1172 34.7532 36.03Z" fill="#D8DEE9"/>
<path fill-rule="evenodd" clip-rule="evenodd" d="M34.0407 36.3516C34.0069 36.5363 33.9019 36.5663 33.7866 36.5879C33.5907 36.6207 33.7379 36.4735 33.706 36.4172C33.6235 36.2766 33.8316 36.3038 33.856 36.2119C33.9104 36.2832 34.035 36.2813 34.0407 36.3516Z" fill="#CBD2E3"/>
<path fill-rule="evenodd" clip-rule="evenodd" d="M32.9437 30.2719C32.8781 30.3028 32.9653 30.4594 32.8247 30.4144C32.7178 30.3778 32.5866 30.3272 32.5959 30.196C32.5997 30.1453 32.7272 30.1031 32.7984 30.0591C32.8106 30.1538 33.0131 30.1228 32.9437 30.2719Z" fill="#D1D8E6"/>
<path fill-rule="evenodd" clip-rule="evenodd" d="M38.2492 34.3838C38.0729 34.4531 38.1526 34.3078 38.1216 34.2656C38.0035 34.1053 38.237 34.1288 38.2492 34.0331C38.3213 34.081 38.462 34.1353 38.4563 34.1766C38.4522 34.2302 38.4291 34.2805 38.3911 34.3185C38.3531 34.3565 38.3027 34.3797 38.2492 34.3838Z" fill="#DADFEA"/>
<path fill-rule="evenodd" clip-rule="evenodd" d="M29.1844 32.9531C29.1844 33.0619 29.4038 33.0188 29.3298 33.1547C29.2998 33.21 29.3635 33.3581 29.2116 33.3272C29.0963 33.3037 28.9801 33.2363 28.9763 33.1219C28.9763 33.0684 29.1094 33.0112 29.1844 32.9531Z" fill="#CAD2E2"/>
<path fill-rule="evenodd" clip-rule="evenodd" d="M32.1845 36.345C32.0982 36.3047 32.0945 36.1913 32.1001 36.1369C32.1095 36.0647 32.206 35.9672 32.2885 36.0066C32.3392 36.031 32.4826 36.0169 32.4479 36.1482C32.416 36.2738 32.2904 36.2916 32.1845 36.345Z" fill="#D0D7E5"/>
<path fill-rule="evenodd" clip-rule="evenodd" d="M35.8125 36.18C35.8163 36.1791 35.8819 36.0881 35.9559 36.0863C36.0094 36.0844 36.0637 36.195 36.1209 36.2569C36.0441 36.2785 36.1097 36.42 35.9578 36.4181C35.8209 36.4153 35.8209 36.3535 35.8125 36.18Z" fill="#EFF2F6"/>
<path fill-rule="evenodd" clip-rule="evenodd" d="M29.7806 33.8063C29.7553 33.9075 29.7553 33.9703 29.6653 33.9684C29.5735 33.9666 29.5285 33.9328 29.5303 33.8391C29.5303 33.765 29.5791 33.7134 29.6344 33.7181C29.6981 33.7228 29.7891 33.7406 29.7806 33.8063Z" fill="#CCD4E3"/>
<path fill-rule="evenodd" clip-rule="evenodd" d="M24.032 32.3475C24.077 32.3963 24.1285 32.4347 24.1482 32.4844C24.1651 32.5257 24.1388 32.5885 24.0807 32.595C24.016 32.6007 23.9466 32.5988 23.926 32.5182C23.9073 32.4394 23.9757 32.4113 24.032 32.3475Z" fill="#E0E5EE"/>
<path fill-rule="evenodd" clip-rule="evenodd" d="M23.369 33.0469C23.3437 32.9391 23.1768 33.0075 23.1655 32.8838C23.2012 32.9775 23.4796 32.7685 23.369 33.0469Z" fill="#7085B1"/>
<path fill-rule="evenodd" clip-rule="evenodd" d="M22.5187 28.9735C22.4981 28.8581 22.3209 28.9491 22.3115 28.8169C22.3612 28.8956 22.6125 28.7091 22.5187 28.9735Z" fill="#5C75A7"/>
<path fill-rule="evenodd" clip-rule="evenodd" d="M32.9156 28.0463C32.9334 27.975 32.9906 27.8588 32.9681 27.8372C32.6625 27.5654 33.0703 27.5194 33.1312 27.4641C33.2428 27.3563 33.225 27.811 33.5194 27.5232C33.3609 27.8747 33.1491 27.976 32.9053 28.036L32.9156 28.0463Z" fill="#E7EAF2"/>
<path fill-rule="evenodd" clip-rule="evenodd" d="M23.8792 27.7547C23.5811 27.7257 23.8464 27.3375 23.7817 27.1125C23.7011 26.8219 23.9129 26.8257 24.1192 26.8247C24.4389 26.8229 24.6198 26.9579 24.6198 27.2954C24.6189 27.6272 24.4651 27.7585 23.8792 27.7547Z" fill="#15A24A"/>
<path fill-rule="evenodd" clip-rule="evenodd" d="M35.2698 29.6278C35.2041 29.8284 34.9613 29.9541 34.9201 30.2016C34.9163 30.2344 34.8226 30.2278 34.8048 30.1322C34.7298 29.6841 34.726 29.685 34.3951 29.925C34.3688 29.9447 34.3229 29.9625 34.2976 29.9541C34.2488 29.9325 34.2291 29.8837 34.2582 29.8284C34.3679 29.6147 34.471 29.3953 34.5938 29.1881C34.6763 29.0512 34.7766 29.1656 34.8573 29.205C35.0344 29.2922 35.2529 29.3419 35.2698 29.6278Z" fill="#13A248"/>
<path fill-rule="evenodd" clip-rule="evenodd" d="M36.1088 30.3572C35.9363 30.4266 35.8529 30.2963 35.7422 30.2494C35.6672 30.2175 35.5969 30.1875 35.5463 30.271C35.491 30.3591 35.5463 30.4097 35.6222 30.4491C35.6804 30.4782 35.7422 30.5007 35.7854 30.5466C35.8613 30.6263 36.0994 30.6047 36.0029 30.7744C35.9269 30.9094 35.7994 30.7519 35.715 30.7022C35.5697 30.6132 35.2819 30.5644 35.3129 30.4097C35.3607 30.1613 35.5022 29.8913 35.6907 29.7207C35.8416 29.5838 36.0085 29.8425 36.1782 29.9072C36.2513 29.9344 36.376 29.9588 36.3544 30.0741C36.3338 30.1932 36.2457 30.1238 36.1782 30.1078C36.0197 30.0713 35.866 29.8032 35.7413 29.9888C35.6663 30.0994 35.9747 30.1453 36.0722 30.2672C36.0872 30.285 36.091 30.3094 36.1088 30.3572ZM38.1291 31.6828C38.1572 31.9022 38.0682 32.0513 37.8385 32.0138C37.6004 31.9744 37.4194 31.8291 37.3782 31.5685C37.3744 31.5422 37.4063 31.4888 37.4325 31.4813C37.4477 31.4763 37.4637 31.4747 37.4794 31.4767C37.4952 31.4786 37.5104 31.4839 37.5239 31.4923C37.5374 31.5007 37.5489 31.512 37.5576 31.5253C37.5662 31.5386 37.5719 31.5537 37.5741 31.5694C37.6041 31.7485 37.6979 31.8282 37.8863 31.8319C37.9229 31.5385 37.3932 31.4044 37.6979 31.0997C37.8507 30.9469 38.0372 31.0735 38.1704 31.1963C38.2932 31.3078 38.4432 31.4307 38.2191 31.59C38.1872 31.5732 38.1441 31.546 38.1207 31.5647C38.0729 31.5966 38.1197 31.6425 38.1291 31.6828Z" fill="#11A147"/>
<path fill-rule="evenodd" clip-rule="evenodd" d="M31.6537 28.8909C31.5421 28.8281 31.5477 28.7681 31.5656 28.7025C31.6012 28.5628 31.529 28.4897 31.4015 28.4503C31.274 28.4091 31.1756 28.4147 31.1409 28.5741C31.1287 28.6453 31.0912 28.695 31.0134 28.6687C30.9234 28.6359 30.9684 28.5628 30.9852 28.5094C31.0209 28.3866 31.0527 28.2628 31.109 28.1456C31.1596 28.0284 31.124 27.8137 31.3087 27.8278C31.5046 27.8419 31.7165 27.8887 31.8656 28.0509C31.9321 28.1222 31.9593 28.245 31.9049 28.2984C31.7465 28.4616 31.7596 28.6922 31.6537 28.8909Z" fill="#0FA046"/>
<path fill-rule="evenodd" clip-rule="evenodd" d="M25.8684 27.6975C25.5656 27.8119 25.3265 27.7454 25.0931 27.75C24.9872 27.7529 24.9778 27.6732 24.9778 27.5925C24.984 27.5032 24.9865 27.4138 24.9853 27.3244C24.9965 26.8304 25.1718 26.7038 25.6575 26.8416C25.7118 26.8566 25.7634 26.866 25.7672 26.9269C25.7672 27.0113 25.7062 27.0263 25.6312 27.0244C25.6206 27.0219 25.6087 27.021 25.5956 27.0216C25.4503 27.0572 25.1897 26.8932 25.185 27.1107C25.1793 27.2775 25.4634 27.1594 25.6087 27.2157C25.6281 27.225 25.6531 27.2419 25.6837 27.2663C25.5918 27.4322 25.439 27.3394 25.3209 27.3591C25.2506 27.3704 25.1587 27.3394 25.1484 27.4538C25.1353 27.5888 25.229 27.5822 25.3209 27.5916C25.4775 27.6104 25.6472 27.5513 25.8684 27.6975Z" fill="#0B9F43"/>
<path fill-rule="evenodd" clip-rule="evenodd" d="M23.3795 27.7688C23.2163 27.7331 23.2388 27.6394 23.2107 27.5738C23.162 27.4528 23.0654 27.4528 22.9595 27.4613C22.8385 27.4725 22.7729 27.5194 22.7832 27.6535C22.7907 27.7191 22.817 27.825 22.6951 27.81C22.5901 27.7969 22.6201 27.6947 22.6145 27.6253C22.6051 27.5119 22.5938 27.3956 22.6051 27.2831C22.6201 27.1575 22.5001 26.9653 22.681 26.9203C22.8676 26.8716 23.0832 26.8369 23.2773 26.9297C23.3616 26.97 23.4282 27.0685 23.3973 27.1481C23.326 27.3488 23.3823 27.5522 23.3795 27.7688Z" fill="#079D3F"/>
<path fill-rule="evenodd" clip-rule="evenodd" d="M21.4004 27.45C21.4304 27.196 21.542 26.9897 21.8204 26.9991C22.0876 27.0075 22.2301 27.1931 22.2301 27.4603C22.2301 27.7256 22.1063 27.9085 21.8241 27.9066C21.5373 27.9047 21.4398 27.6966 21.4004 27.45Z" fill="#15A24A"/>
<path fill-rule="evenodd" clip-rule="evenodd" d="M39.2475 32.2125C39.2212 32.4647 39.0965 32.655 38.8087 32.6803C38.5434 32.7019 38.4028 32.55 38.3822 32.3006C38.3587 32.0485 38.6062 31.8075 38.8584 31.8094C39.0797 31.8113 39.2418 31.9716 39.2475 32.2125Z" fill="#11A147"/>
<path fill-rule="evenodd" clip-rule="evenodd" d="M33.9843 29.2781C34.1961 29.4488 33.9393 29.5613 33.9299 29.7047C33.7536 29.6231 33.5333 29.656 33.3908 29.5013C33.239 29.3363 33.2671 29.1497 33.3665 28.9678C33.4761 28.7756 33.6449 28.6931 33.8521 28.7663C34.0415 28.8338 34.183 28.9613 34.0911 29.2013C33.9458 29.2275 33.8268 29.0363 33.6224 29.1647C33.7583 29.2275 33.9215 29.1403 33.9843 29.2781Z" fill="#0C9F43"/>
<path fill-rule="evenodd" clip-rule="evenodd" d="M28.8843 27.3469C28.7606 27.4922 28.6696 27.4359 28.5843 27.4378C28.5018 27.4378 28.4137 27.3694 28.3115 27.4547C28.4034 27.6047 28.6256 27.5081 28.7118 27.6572C28.6996 27.6787 28.694 27.7078 28.6781 27.7228C28.5543 27.8203 28.3565 27.5841 28.2796 27.7791C28.2093 27.9469 28.394 27.8887 28.4737 27.9169C28.5637 27.9525 28.6753 27.9394 28.784 28.0612C28.5318 28.1719 28.2309 28.1203 28.1268 27.9984C27.9628 27.8062 28.0781 27.465 28.2028 27.2944C28.35 27.0928 28.619 27.2897 28.8843 27.3469Z" fill="#19A44D"/>
<path fill-rule="evenodd" clip-rule="evenodd" d="M30.4829 28.1625C30.2701 28.14 30.0282 27.99 29.9673 28.3406C29.9654 28.3519 29.8913 28.3678 29.8688 28.3528C29.8435 28.3388 29.8295 28.2863 29.8341 28.2563C29.8895 28.0341 29.9176 27.796 30.016 27.5963C30.1304 27.3713 30.3245 27.5616 30.4848 27.5831C30.676 27.6085 30.782 27.7247 30.7613 27.9263C30.7426 28.0997 30.6113 28.1466 30.4829 28.1625Z" fill="#0D9F44"/>
<path fill-rule="evenodd" clip-rule="evenodd" d="M33.0188 28.6997C32.9982 28.9819 32.8594 29.1769 32.5773 29.1854C32.3251 29.1947 32.1835 29.0175 32.1891 28.7663C32.1966 28.4944 32.3288 28.2975 32.6223 28.2891C32.8913 28.2797 32.9954 28.4607 33.0188 28.6997Z" fill="#0FA046"/>
<path fill-rule="evenodd" clip-rule="evenodd" d="M26.699 27.6816C26.668 27.7482 26.6427 27.8428 26.5536 27.8213C26.399 27.7847 26.4683 27.6357 26.4308 27.5382C26.3165 27.4266 26.3465 27.5803 26.3108 27.6085C26.2977 27.6778 26.3296 27.7838 26.2358 27.7978C26.1205 27.8119 26.1477 27.7013 26.1505 27.6357C26.1599 27.4988 26.1618 27.3553 26.1993 27.2241C26.2321 27.1116 26.113 26.9044 26.3371 26.9025C26.5349 26.9016 26.4918 27.1032 26.5171 27.2241C26.5433 27.3628 26.5574 27.4219 26.6708 27.2841C26.788 27.2532 26.8124 27.3385 26.8396 27.421C26.8546 27.541 26.8011 27.6244 26.699 27.6816Z" fill="#0EA044"/>
<path fill-rule="evenodd" clip-rule="evenodd" d="M36.6844 31.125C36.7538 31.125 36.8241 31.2169 36.8916 31.1382C36.9432 31.0791 36.8973 31.021 36.8513 30.9732C36.8163 30.9375 36.7826 30.9007 36.7501 30.8625C36.6544 30.7472 36.5204 30.6366 36.6526 30.4697C36.7726 30.3169 36.9123 30.3544 37.051 30.451C37.0763 30.4997 37.0679 30.5466 37.0416 30.5907C36.9394 30.751 37.1298 30.8485 37.126 30.9853C37.1551 31.1138 37.1738 31.2432 37.0323 31.3172C36.856 31.411 36.7201 31.3247 36.5907 31.2122C36.5766 31.1382 36.6038 31.1016 36.6844 31.125Z" fill="#10A146"/>
<path fill-rule="evenodd" clip-rule="evenodd" d="M33.9844 29.2781C33.9122 29.3288 33.7669 29.1647 33.7716 29.2885C33.781 29.5078 33.6713 29.4881 33.5691 29.4235C33.4313 29.3381 33.4238 29.1919 33.511 29.0569C33.5954 28.9247 33.7144 28.8478 33.8588 28.9556C33.9469 29.0203 34.0135 29.1178 34.0894 29.2013L33.9844 29.2781Z" fill="#ECF7F0"/>
<path fill-rule="evenodd" clip-rule="evenodd" d="M26.7609 27.4594C26.7338 27.4013 26.7038 27.3447 26.6709 27.2897C26.7037 27.2063 26.7337 27.1219 26.7731 27.0413C26.8087 26.9653 26.8706 26.9231 26.9578 26.9513C27.0553 26.9841 27.0478 27.0591 27.0421 27.1378C27.0215 27.3672 27.0025 27.5966 26.985 27.8259C26.8481 27.9131 26.8134 27.8334 26.7909 27.7153C26.774 27.63 26.8181 27.5381 26.7609 27.4594Z" fill="#17A34C"/>
<path fill-rule="evenodd" clip-rule="evenodd" d="M37.1288 30.9844C37.0444 30.8981 36.9544 30.8166 36.8757 30.7247C36.7838 30.6159 36.8194 30.5494 36.9563 30.5316C37.1541 30.5756 37.275 30.6712 37.2169 30.8981C37.1894 30.9269 37.16 30.9556 37.1288 30.9844Z" fill="#D7EFE0"/>
<path fill-rule="evenodd" clip-rule="evenodd" d="M37.2169 30.8981C37.126 30.78 37.1016 30.6113 36.9563 30.5316L37.0538 30.45C37.2113 30.5616 37.4991 30.6253 37.2169 30.8981Z" fill="#2BAB5B"/>
<path fill-rule="evenodd" clip-rule="evenodd" d="M38.1292 31.6828C38.117 31.6753 38.1011 31.6716 38.0954 31.6613C38.0204 31.5225 37.772 31.3978 37.8564 31.275C37.9623 31.1269 38.0729 31.3022 38.1311 31.4288C38.1573 31.4822 38.1892 31.5347 38.2192 31.59C38.1879 31.6213 38.1579 31.6522 38.1292 31.6828Z" fill="#E6F5EC"/>
<path fill-rule="evenodd" clip-rule="evenodd" d="M36.6845 31.125C36.6557 31.1544 36.6245 31.1838 36.5907 31.2131C36.5513 31.185 36.497 31.1653 36.4717 31.125C36.4238 31.0341 36.287 30.9131 36.4454 30.8419C36.5785 30.7781 36.5785 30.9478 36.6217 31.0303C36.6395 31.065 36.662 31.0941 36.6845 31.125Z" fill="#29AA59"/>
<path fill-rule="evenodd" clip-rule="evenodd" d="M26.7611 27.4594C26.8979 27.5128 26.8257 27.6272 26.8276 27.7125C26.8351 27.8297 26.8764 27.8691 26.9861 27.8278C26.7573 28.0491 26.7864 27.7538 26.6982 27.6882C26.7217 27.6103 26.7395 27.5344 26.7611 27.4594Z" fill="#DDF1E4"/>
<path fill-rule="evenodd" clip-rule="evenodd" d="M26.3062 27.6094V27.3075C26.4355 27.3487 26.4393 27.4397 26.4262 27.5391L26.3062 27.6094Z" fill="#6FC690"/>
<path fill-rule="evenodd" clip-rule="evenodd" d="M23.97 27.3C23.9831 27.1632 23.9175 26.985 24.1509 27C24.3215 27.0103 24.4453 27.0788 24.4547 27.2738C24.464 27.4838 24.3412 27.5691 24.1472 27.5832C23.9006 27.6028 24.0009 27.4088 23.97 27.3Z" fill="#F5FBF7"/>
<path fill-rule="evenodd" clip-rule="evenodd" d="M34.7812 29.3625C34.8787 29.4159 35.0278 29.4263 35.0597 29.5706C35.0756 29.6456 35.0109 29.6953 34.9444 29.6738C34.8206 29.6363 34.6566 29.6344 34.6397 29.46C34.635 29.4094 34.6894 29.3456 34.7812 29.3625Z" fill="#EFF8F3"/>
<path fill-rule="evenodd" clip-rule="evenodd" d="M31.7409 28.2094C31.7156 28.3069 31.6471 28.3407 31.5684 28.3116C31.4624 28.2732 31.2918 28.3153 31.2899 28.1297C31.2862 28.0332 31.3518 28.0041 31.4399 28.0332C31.5562 28.0707 31.6968 28.066 31.7409 28.2094Z" fill="#DEF2E5"/>
<path fill-rule="evenodd" clip-rule="evenodd" d="M22.9829 27.0553C23.0748 27.0665 23.2201 27.0178 23.2107 27.1744C23.2013 27.3112 23.0626 27.2897 22.9632 27.2915C22.8835 27.2944 22.7691 27.3356 22.7616 27.1922C22.756 27.0215 22.8891 27.075 22.9829 27.0553Z" fill="#F3FAF5"/>
<path fill-rule="evenodd" clip-rule="evenodd" d="M21.7968 27.1857C21.9665 27.1969 22.0509 27.2982 22.0575 27.4575C22.0668 27.6 21.9965 27.7219 21.8503 27.735C21.6815 27.751 21.6056 27.6225 21.5962 27.466C21.5868 27.3216 21.6431 27.2166 21.7968 27.1857Z" fill="#F3FAF6"/>
<path fill-rule="evenodd" clip-rule="evenodd" d="M39.0609 32.2453C39.0365 32.401 38.9427 32.5107 38.7618 32.5107C38.6165 32.5088 38.5621 32.4028 38.5771 32.2744C38.5912 32.1 38.6952 31.9875 38.8724 31.9903C39.0121 31.9941 39.0665 32.0944 39.0609 32.2453Z" fill="#F9FCFA"/>
<path fill-rule="evenodd" clip-rule="evenodd" d="M30.2626 27.7013C30.3573 27.7594 30.5476 27.6994 30.5748 27.8869C30.5832 27.9582 30.5045 27.9947 30.4416 27.9807C30.3188 27.9535 30.1473 27.9975 30.1323 27.7997C30.1295 27.7388 30.1566 27.6732 30.2626 27.7013Z" fill="#E7F5EC"/>
<path fill-rule="evenodd" clip-rule="evenodd" d="M32.8313 28.7222C32.8135 28.8844 32.7338 28.9978 32.5697 28.9978C32.4085 28.9997 32.3513 28.8872 32.3588 28.7391C32.3719 28.5759 32.4647 28.4672 32.6232 28.4606C32.7807 28.455 32.8313 28.5806 32.8313 28.7222Z" fill="#F5FBF7"/>
</svg>
