<svg width="60" height="60" viewBox="0 0 60 60" fill="none" xmlns="http://www.w3.org/2000/svg">
<path d="M13.8408 30.1538C13.7471 40.0304 10.0626 46.1209 7.71906 49.3809C5.35993 52.6618 2.78208 54.5731 2.24047 54.9455C1.36035 55.5496 2.11027 56.8046 2.96175 56.5911C9.39336 54.9819 16.4239 54.4429 16.4239 54.4429C16.4239 54.4429 22.1524 54.5679 24.3449 47.4983C25.7718 42.8998 27.993 36.2365 27.993 30.1538C27.993 24.0711 25.7692 17.4077 24.3449 12.8093C22.1524 5.7397 16.4239 5.86469 16.4239 5.86469C16.4239 5.86469 9.39336 5.32568 2.96175 3.71648C2.11027 3.50296 1.36035 4.75803 2.24047 5.36214C2.78208 5.73449 5.35993 7.64315 7.71906 10.9267C10.0626 14.1893 13.7471 20.2772 13.8408 30.1538ZM45.9312 30.1538C46.0249 40.0304 49.7094 46.1209 52.0529 49.3809C54.4121 52.6618 56.9899 54.5731 57.5315 54.9455C58.4116 55.5496 57.6617 56.8046 56.8102 56.5911C50.3786 54.9819 43.3481 54.4429 43.3481 54.4429C43.3481 54.4429 37.6196 54.5679 35.4271 47.4983C34.0001 42.8998 31.779 36.2365 31.779 30.1538C31.779 24.0711 34.0027 17.4077 35.4271 12.8093C37.6196 5.7397 43.3481 5.86469 43.3481 5.86469C43.3481 5.86469 50.3786 5.32568 56.8102 3.71648C57.6617 3.50296 58.4116 4.75803 57.5315 5.36214C56.9899 5.73449 54.4121 7.64315 52.0529 10.9267C49.7094 14.1893 46.0275 20.2772 45.9312 30.1538Z" fill="#6BD41A"/>
</svg>
