<svg width="60" height="60" viewBox="0 0 60 60" fill="none" xmlns="http://www.w3.org/2000/svg">
<path d="M30 40C32.6522 40 35.1957 38.9464 37.0711 37.0711C38.9464 35.1957 40 32.6522 40 30C40 27.3478 38.9464 24.8043 37.0711 22.9289C35.1957 21.0536 32.6522 20 30 20C27.3478 20 24.8043 21.0536 22.9289 22.9289C21.0536 24.8043 20 27.3478 20 30C20 32.6522 21.0536 35.1957 22.9289 37.0711C24.8043 38.9464 27.3478 40 30 40Z" stroke="white" stroke-width="3.75" stroke-linecap="round" stroke-linejoin="round"/>
<path d="M7.5 40V20C7.5 16.6848 8.81696 13.5054 11.1612 11.1612C13.5054 8.81696 16.6848 7.5 20 7.5H40C43.3152 7.5 46.4946 8.81696 48.8388 11.1612C51.183 13.5054 52.5 16.6848 52.5 20V40C52.5 43.3152 51.183 46.4946 48.8388 48.8388C46.4946 51.183 43.3152 52.5 40 52.5H20C16.6848 52.5 13.5054 51.183 11.1612 48.8388C8.81696 46.4946 7.5 43.3152 7.5 40Z" stroke="white" stroke-width="3.75"/>
<path d="M43.75 16.275L43.775 16.2475" stroke="white" stroke-width="3.75" stroke-linecap="round" stroke-linejoin="round"/>
</svg>
