<svg width="60" height="60" viewBox="0 0 60 60" fill="none" xmlns="http://www.w3.org/2000/svg">
<g clip-path="url(#clip0_13_24)">
<path d="M33.7574 0.500225C33.5075 0.50587 33.2733 0.617391 33.0504 0.888967C31.2667 0.972898 30.0324 1.40046 29.331 2.15823H26.8521L23.53 4.42277C23.3928 4.09904 23.2604 3.76688 23.1326 3.42516C21.7002 3.41317 20.4481 3.01793 19.4155 2.15823C17.7359 3.42199 16.077 4.05938 14.4577 3.4275C12.3227 4.99221 10.0358 4.52608 9.5 5.96369H10.7406H15.6983C16.4979 6.25265 16.8988 6.67787 16.9366 7.23062C16.9496 8.43203 16.3215 9.47899 16.9366 9.76915C18.1821 10.4346 18.4398 11.8157 18.1772 13.5723C17.4651 15.6238 17.0608 17.7401 16.9366 19.9139L18.1772 21.1832C19.0596 22.6424 19.4533 24.3431 19.4178 26.2556C19.8483 27.3563 19.7963 28.6856 19.4178 30.1687C19.9394 31.8845 20.021 33.5483 19.4178 35.1334C19.2073 35.9092 18.7485 36.7715 18.1772 37.6719L19.4178 38.9389C20.1642 40.9028 20.1133 42.5748 19.4178 44.0112C20.978 46.0544 20.275 50.2464 21.8967 52.8914C22.3083 53.9777 22.3284 55.2365 21.8967 56.6945C22.578 55.8636 23.0533 55.0228 23.1349 54.1583C21.7368 50.65 23.5976 48.9905 21.8967 47.8167C21.8635 46.1189 22.2999 44.4289 23.1349 42.7443C22.3921 41.8223 21.8647 40.948 21.8967 40.2058C22.203 37.4169 22.9455 34.8418 24.3755 32.5972C23.6185 31.5313 23.4789 30.376 24.3755 29.0751C22.9348 28.1962 23.3181 26.7045 24.3755 24.9863C23.4671 23.7837 22.7538 22.5384 23.098 21.0684C21.8927 20.433 21.821 18.9581 21.8967 17.3754C21.8565 16.1464 22.2786 15.3104 23.1349 14.8392C22.3294 13.8188 22.348 12.1336 22.2132 9.9682C22.5112 9.06175 23.3193 8.65701 24.3755 8.49754C24.4158 7.91122 24.5067 7.34698 25.6138 7.22827C24.9585 6.86737 24.456 6.23122 24.0313 5.45786C25.3182 4.8056 26.6614 4.47146 28.095 4.69208C30.0763 5.39111 29.9117 8.02661 29.3333 11.0337L30.5739 12.303C30.9997 14.5008 31.0624 16.6267 30.5739 18.6446C30.568 19.2346 30.8316 19.7173 31.8122 19.9139C31.6868 21.4486 31.3841 22.8166 30.5739 23.717C31.2883 25.4436 31.8405 27.1527 31.8122 28.7918C31.352 32.1346 30.6959 35.2704 29.3333 37.6696C29.946 37.9118 30.3716 38.325 30.5739 38.9389V41.4751C31.7875 45.0241 30.1242 47.4529 31.8122 49.086L30.5739 51.6222C31.6491 52.3452 32.2344 53.472 31.8122 55.4276C32.4876 56.388 30.8363 58.6655 31.8122 60.5L33.0527 57.9638L34.2933 50.3529C35.1899 47.6143 32.1441 48.5864 34.2933 41.4751C32.3417 30.2487 37.6818 30.1675 36.7722 27.5225C35.9241 25.4146 35.7207 23.7115 36.7722 22.799C35.5172 21.4561 35.9147 20.0583 36.7722 18.6446C37.0218 17.1878 36.5666 16.3783 35.5316 16.1061C35.573 15.0762 36.0093 14.2426 36.7722 13.5699C35.8756 12.3889 35.5636 11.1002 35.5316 9.76447C35.4642 7.82446 37.6724 6.8066 36.7699 5.96369L39.2488 4.69442C38.0245 3.97502 37.6805 3.11984 38.0082 2.15823C36.1976 2.45439 34.8402 0.475764 33.7574 0.500225ZM45.4471 2.15823C44.0999 2.78532 43.3195 3.64889 42.9682 4.69442C41.8658 4.63687 40.6552 4.95772 39.2488 5.96369L38.0082 7.23062C39.3803 6.86732 40.066 7.49511 40.487 8.49988C42.3003 7.58264 43.4507 7.72652 44.2065 8.49988C45.1859 9.22768 43.7712 11.7916 44.8002 14.8275C44.4702 16.15 43.6299 15.8822 43.4927 16.6916C43.2549 18.0285 44.8393 17.3791 44.2065 19.9163C43.8682 21.4114 44.4595 22.6235 45.4448 23.7194L44.9573 26.1221L45.4448 28.7941V36.4027C45.7417 38.0022 44.2273 39.1772 45.1144 40.8966C45.7449 41.917 45.0411 42.7808 44.7194 43.1237C43.9848 43.6105 43.6671 44.7607 45.1953 45.955C45.7761 46.8722 44.3023 47.5572 44.2065 49.086L45.4448 52.8914V50.3529C46.0055 48.1779 46.8236 46.4735 47.9237 45.2805C47.6102 43.6774 46.7946 42.3471 47.6072 41.461C48.2128 40.9358 48.2863 40.0898 47.8451 38.9927C47.3945 37.988 47.4183 37.7224 48.0831 36.9694C48.8235 36.1457 48.8505 34.8026 48.0438 33.5293C46.732 32.6288 50.2986 30.0452 49.1643 27.5225C49.1643 27.5225 47.393 24.7644 47.8082 23.4899C48.2233 22.2153 47.926 21.1808 47.926 21.1808C47.182 19.2852 47.1926 17.5976 47.926 16.1085C47.8077 11.9934 50.4179 11.1449 50.4048 8.49988C50.9407 6.71815 49.033 5.47667 49.1643 3.42516C48.6545 2.59544 47.3053 2.23617 45.4471 2.15823Z" fill="#6BD41A"/>
</g>
<defs>
<clipPath id="clip0_13_24">
<rect width="60" height="60" fill="white"/>
</clipPath>
</defs>
</svg>
