<svg width="60" height="60" viewBox="0 0 60 60" fill="none" xmlns="http://www.w3.org/2000/svg">
<g clip-path="url(#clip0_13_17)">
<path d="M29.2819 0.973951C29.0037 1.50068 27.9601 3.4784 26.9763 5.36668C24.3923 10.3358 24.1339 10.8129 23.1798 12.6216C22.345 14.2018 20.7648 17.2032 19.4231 19.7772C19.0753 20.463 18.5685 21.417 18.3101 21.914C18.0517 22.4009 17.3162 23.8122 16.6702 25.0445C16.0242 26.2769 15.09 28.0658 14.5832 29.0198C14.0763 29.9739 13.0726 31.9019 12.3471 33.2933C11.6116 34.6847 10.5184 36.7817 9.89232 37.9544L8.76929 40.0812L11.3334 44.3646C12.7446 46.72 15.4578 51.2518 17.3659 54.4321L20.8244 60.2261H29.8385H38.8625L39.5482 59.0633C40.383 57.6421 50.5797 40.588 50.7586 40.2899C50.8779 40.111 50.7884 39.8923 49.9238 38.2525C48.9598 36.4139 48.4529 35.44 46.2864 31.3056C45.6404 30.0733 44.6764 28.2447 44.1496 27.2309C43.2453 25.5116 37.9879 15.4739 35.4238 10.5843C34.7977 9.38175 33.7045 7.30465 32.9989 5.96298C32.3032 4.62131 31.3094 2.73303 30.8124 1.75908C30.3056 0.795062 29.8683 -2.46614e-06 29.8385 -2.46614e-06C29.8087 -2.46614e-06 29.5602 0.437283 29.2819 0.973951ZM29.1527 8.32829C26.6483 16.5075 22.3649 30.5106 21.5798 33.1244C21.2021 34.3666 20.894 35.43 20.894 35.4797C20.894 35.599 21.699 37.2686 29.4807 53.3687L29.7888 54.0147L29.8385 30.4112L29.8882 6.80773L30.3056 8.09971C30.7031 9.35194 33.0585 17.0342 33.4163 18.2368C33.7939 19.5188 38.8028 35.8276 38.8327 35.8773C38.8525 35.917 38.286 37.1494 37.5804 38.6202C36.8649 40.0911 34.8275 44.295 33.0585 47.9622L29.8385 54.6408V56.8868V59.1329H25.6445L21.4406 59.123L20.4865 57.5129C19.9598 56.6284 18.3597 53.955 16.9386 51.5798C13.7384 46.2131 11.1147 41.8104 10.5781 40.8862C10.3495 40.5085 10.1606 40.1309 10.1606 40.0613C10.1606 39.9917 10.6576 38.988 11.2638 37.8351C11.87 36.6723 12.6253 35.2313 12.9434 34.635C13.2614 34.0287 13.9869 32.6473 14.5633 31.5541C15.1298 30.4609 16.6504 27.549 17.9324 25.0942C19.2244 22.6295 20.4965 20.1946 20.7648 19.6778C21.0431 19.161 21.7984 17.7001 22.4643 16.4479C23.1202 15.1857 24.5911 12.3732 25.734 10.1868C26.8868 8.00033 28.2682 5.35674 28.8049 4.32316L29.7888 2.43488L29.8186 4.25359L29.8385 6.08224L29.1527 8.32829ZM43.9708 38.1531C45.6801 39.8228 47.0814 41.2141 47.0814 41.2539C47.0814 41.2837 46.4156 41.8899 45.5907 42.5856C43.6825 44.2056 40.4427 46.9585 34.3107 52.1761C31.3889 54.6706 31.2895 54.7501 31.2597 54.7203C31.2299 54.7004 32.2336 52.6034 35.8213 45.1696C36.5866 43.5794 37.5208 41.6614 37.8885 40.8961C38.2562 40.1309 38.9718 38.6501 39.4786 37.6165C39.9855 36.5729 40.4625 35.5791 40.5321 35.4002C40.6116 35.2213 40.7209 35.0822 40.7607 35.1021C40.8104 35.122 42.2514 36.4934 43.9708 38.1531Z" fill="#6BD41A"/>
<path d="M16.8093 36.9506C15.6366 38.0836 14.1955 39.4849 13.6092 40.0613L12.5259 41.0949L13.8675 42.2378C14.593 42.8639 16.0242 44.0764 17.0279 44.9311C18.0317 45.7857 21.0231 48.33 23.6568 50.576C26.3004 52.832 28.4868 54.6607 28.5067 54.6308C28.5265 54.611 27.6222 52.7028 26.4991 50.3772C25.3761 48.0616 24.3525 45.9348 24.2233 45.6665C24.0941 45.3882 23.5375 44.2254 22.981 43.0825C22.4244 41.9297 21.7983 40.6377 21.5896 40.2004C20.6157 38.1432 19.0156 34.8834 18.9858 34.8834C18.956 34.8834 17.982 35.8176 16.8093 36.9506Z" fill="#6BD41A"/>
</g>
<defs>
<clipPath id="clip0_13_17">
<rect width="60" height="60" fill="white"/>
</clipPath>
</defs>
</svg>
