<svg width="60" height="60" viewBox="0 0 60 60" fill="none" xmlns="http://www.w3.org/2000/svg">
<path d="M25 37.5L37.975 30L25 22.5V37.5ZM53.9 17.925C54.225 19.1 54.45 20.675 54.6 22.675C54.775 24.675 54.85 26.4 54.85 27.9L55 30C55 35.475 54.6 39.5 53.9 42.075C53.275 44.325 51.825 45.775 49.575 46.4C48.4 46.725 46.25 46.95 42.95 47.1C39.7 47.275 36.725 47.35 33.975 47.35L30 47.5C19.525 47.5 13 47.1 10.425 46.4C8.175 45.775 6.725 44.325 6.1 42.075C5.775 40.9 5.55 39.325 5.4 37.325C5.225 35.325 5.15 33.6 5.15 32.1L5 30C5 24.525 5.4 20.5 6.1 17.925C6.725 15.675 8.175 14.225 10.425 13.6C11.6 13.275 13.75 13.05 17.05 12.9C20.3 12.725 23.275 12.65 26.025 12.65L30 12.5C40.475 12.5 47 12.9 49.575 13.6C51.825 14.225 53.275 15.675 53.9 17.925Z" fill="white"/>
</svg>
